<mxfile host="app.diagrams.net" agent="Mozilla/5.0 (Windows NT 10.0; Win64; x64) AppleWebKit/537.36 (KHTML, like Gecko) Chrome/129.0.0.0 Safari/537.36" version="24.7.13">
  <diagram name="第 1 页" id="MFSzKicNkeKV2MZ9X1gR">
    <mxGraphModel dx="794" dy="412" grid="1" gridSize="10" guides="1" tooltips="1" connect="1" arrows="1" fold="1" page="1" pageScale="1" pageWidth="827" pageHeight="1169" math="0" shadow="0">
      <root>
        <mxCell id="0" />
        <mxCell id="1" parent="0" />
        <mxCell id="a5soe9cdKRa0krKfu4Lc-1" value="Serial Driver" style="rounded=0;whiteSpace=wrap;html=1;" vertex="1" parent="1">
          <mxGeometry x="150" y="195" width="450" height="45" as="geometry" />
        </mxCell>
        <mxCell id="a5soe9cdKRa0krKfu4Lc-2" value="RM_Serial_Driver&lt;div&gt;&lt;br&gt;&lt;/div&gt;&lt;div&gt;&lt;br&gt;&lt;/div&gt;&lt;div&gt;&lt;br&gt;&lt;/div&gt;&lt;div&gt;&lt;br&gt;&lt;/div&gt;&lt;div&gt;&lt;br&gt;&lt;/div&gt;&lt;div&gt;&lt;br&gt;&lt;/div&gt;&lt;div&gt;&lt;br&gt;&lt;/div&gt;&lt;div&gt;&lt;br&gt;&lt;/div&gt;&lt;div&gt;&lt;br&gt;&lt;/div&gt;&lt;div&gt;&lt;br&gt;&lt;/div&gt;" style="rounded=0;whiteSpace=wrap;html=1;" vertex="1" parent="1">
          <mxGeometry x="150" y="260" width="450" height="180" as="geometry" />
        </mxCell>
        <mxCell id="a5soe9cdKRa0krKfu4Lc-7" style="edgeStyle=orthogonalEdgeStyle;rounded=0;orthogonalLoop=1;jettySize=auto;html=1;exitX=0;exitY=0.5;exitDx=0;exitDy=0;" edge="1" parent="1" source="a5soe9cdKRa0krKfu4Lc-3" target="a5soe9cdKRa0krKfu4Lc-4">
          <mxGeometry relative="1" as="geometry" />
        </mxCell>
        <mxCell id="a5soe9cdKRa0krKfu4Lc-9" style="edgeStyle=orthogonalEdgeStyle;rounded=0;orthogonalLoop=1;jettySize=auto;html=1;exitX=1;exitY=0.5;exitDx=0;exitDy=0;entryX=0;entryY=0.5;entryDx=0;entryDy=0;" edge="1" parent="1" source="a5soe9cdKRa0krKfu4Lc-3" target="a5soe9cdKRa0krKfu4Lc-5">
          <mxGeometry relative="1" as="geometry" />
        </mxCell>
        <mxCell id="a5soe9cdKRa0krKfu4Lc-3" value="Communication with other node，responsibal for publish and subscription" style="rounded=1;whiteSpace=wrap;html=1;" vertex="1" parent="1">
          <mxGeometry x="317.5" y="302.5" width="115" height="112.5" as="geometry" />
        </mxCell>
        <mxCell id="a5soe9cdKRa0krKfu4Lc-4" value="&lt;div&gt;&lt;br&gt;&lt;/div&gt;&lt;div&gt;Decoding the original data of UART with Ring Buffer to achieve high speed communication&lt;/div&gt;" style="rounded=1;whiteSpace=wrap;html=1;" vertex="1" parent="1">
          <mxGeometry x="170" y="305" width="120" height="110" as="geometry" />
        </mxCell>
        <mxCell id="a5soe9cdKRa0krKfu4Lc-18" style="edgeStyle=orthogonalEdgeStyle;rounded=0;orthogonalLoop=1;jettySize=auto;html=1;exitX=1;exitY=0.5;exitDx=0;exitDy=0;" edge="1" parent="1" source="a5soe9cdKRa0krKfu4Lc-5" target="a5soe9cdKRa0krKfu4Lc-13">
          <mxGeometry relative="1" as="geometry">
            <Array as="points">
              <mxPoint x="630" y="360" />
              <mxPoint x="630" y="630" />
            </Array>
          </mxGeometry>
        </mxCell>
        <mxCell id="a5soe9cdKRa0krKfu4Lc-5" value="Encoding with the CV command packet" style="rounded=1;whiteSpace=wrap;html=1;" vertex="1" parent="1">
          <mxGeometry x="470" y="300" width="120" height="117.5" as="geometry" />
        </mxCell>
        <mxCell id="a5soe9cdKRa0krKfu4Lc-6" value="Serial Driver&lt;div&gt;&lt;br&gt;&lt;/div&gt;&lt;div&gt;&lt;br&gt;&lt;/div&gt;&lt;div&gt;&lt;br&gt;&lt;/div&gt;&lt;div&gt;&lt;br&gt;&lt;/div&gt;&lt;div&gt;&lt;br&gt;&lt;/div&gt;&lt;div&gt;&lt;br&gt;&lt;/div&gt;&lt;div&gt;&lt;br&gt;&lt;/div&gt;&lt;div&gt;&lt;br&gt;&lt;/div&gt;&lt;div&gt;&lt;br&gt;&lt;/div&gt;&lt;div&gt;&lt;br&gt;&lt;/div&gt;&lt;div&gt;&lt;br&gt;&lt;/div&gt;" style="rounded=0;whiteSpace=wrap;html=1;" vertex="1" parent="1">
          <mxGeometry x="150" y="470" width="450" height="210" as="geometry" />
        </mxCell>
        <mxCell id="a5soe9cdKRa0krKfu4Lc-10" value="Communication with trhe UART, and finish the first decode to get the raw data" style="rounded=1;whiteSpace=wrap;html=1;" vertex="1" parent="1">
          <mxGeometry x="160" y="510" width="430" height="60" as="geometry" />
        </mxCell>
        <mxCell id="a5soe9cdKRa0krKfu4Lc-11" value="set the port config" style="rounded=1;whiteSpace=wrap;html=1;" vertex="1" parent="1">
          <mxGeometry x="315" y="585" width="120" height="35" as="geometry" />
        </mxCell>
        <mxCell id="a5soe9cdKRa0krKfu4Lc-15" style="edgeStyle=orthogonalEdgeStyle;rounded=0;orthogonalLoop=1;jettySize=auto;html=1;entryX=0.5;entryY=1;entryDx=0;entryDy=0;" edge="1" parent="1" source="a5soe9cdKRa0krKfu4Lc-12" target="a5soe9cdKRa0krKfu4Lc-4">
          <mxGeometry relative="1" as="geometry">
            <mxPoint x="140" y="360" as="targetPoint" />
            <Array as="points">
              <mxPoint x="110" y="630" />
              <mxPoint x="110" y="414" />
            </Array>
          </mxGeometry>
        </mxCell>
        <mxCell id="a5soe9cdKRa0krKfu4Lc-12" value="receive data" style="rounded=1;whiteSpace=wrap;html=1;" vertex="1" parent="1">
          <mxGeometry x="170" y="600" width="120" height="60" as="geometry" />
        </mxCell>
        <mxCell id="a5soe9cdKRa0krKfu4Lc-13" value="transmit data" style="rounded=1;whiteSpace=wrap;html=1;" vertex="1" parent="1">
          <mxGeometry x="460" y="600" width="120" height="60" as="geometry" />
        </mxCell>
        <mxCell id="a5soe9cdKRa0krKfu4Lc-14" value="open/close the port" style="rounded=1;whiteSpace=wrap;html=1;" vertex="1" parent="1">
          <mxGeometry x="315" y="630" width="120" height="40" as="geometry" />
        </mxCell>
      </root>
    </mxGraphModel>
  </diagram>
</mxfile>
